<svg version="1.1" id="Layer_1" xmlns="http://www.w3.org/2000/svg" xmlns:xlink="http://www.w3.org/1999/xlink" x="0px" y="0px"
	 width="100%" viewBox="0 0 944 1024" enable-background="new 0 0 944 1024" xml:space="preserve">
<path fill="#000000" opacity="1.000000" stroke="none" 
	d="
M1.000000,382.000000 
	C1.000000,283.312439 1.000000,184.624878 1.289601,85.296677 
	C10.282371,77.142357 21.065954,73.702545 31.716730,70.848732 
	C49.067558,66.199684 65.529266,58.959915 82.935204,54.491852 
	C93.434151,51.796803 103.577019,47.601120 113.831444,44.043816 
	C131.416275,37.943562 149.524902,33.272701 167.124695,27.029219 
	C178.057999,23.150656 189.176682,19.958124 200.037231,15.672551 
	C210.842896,11.408633 222.602234,8.916087 234.094955,6.247748 
	C237.411392,5.477745 238.209122,3.957226 237.000000,1.000000 
	C244.020950,1.000000 251.041885,1.000000 258.345215,1.222538 
	C257.742889,2.379672 256.858215,3.314267 255.647141,4.593644 
	C259.597748,5.646091 263.194214,6.313850 266.579010,7.557702 
	C279.169281,12.184418 292.434174,14.547122 304.891388,19.789936 
	C315.427490,24.224216 327.033295,26.051428 337.663086,30.120453 
	C353.991486,36.370899 370.922485,40.567486 387.342621,46.457359 
	C408.618500,54.088993 430.295593,60.604130 451.815796,67.550858 
	C455.760345,68.824150 460.224884,69.117760 463.669861,71.171326 
	C470.138641,75.027397 477.238129,75.483032 483.414948,73.191872 
	C491.231201,70.292572 499.356689,68.544563 507.094086,65.584412 
	C528.475098,57.404533 550.575256,51.373699 572.191162,43.862434 
	C589.832886,37.732155 607.886536,32.489372 625.693726,26.662695 
	C632.007019,24.596930 638.505615,23.241459 644.798279,21.010197 
	C648.794800,19.593117 651.331970,15.879461 655.730225,15.469260 
	C667.599609,14.362280 678.479370,9.340671 689.947083,6.636538 
	C693.178772,5.874496 695.415283,4.421361 696.000000,1.000000 
	C702.021179,1.000000 708.042297,1.000000 714.352966,1.224280 
	C710.947083,6.675262 716.555176,5.708760 718.249695,6.141444 
	C734.676575,10.336045 750.576172,16.163986 766.710876,21.263638 
	C779.689819,25.365837 792.609314,29.627485 805.478394,34.045803 
	C816.147400,37.708782 827.045166,40.616581 837.775940,44.047409 
	C857.994446,50.511635 878.021301,57.573116 898.208191,64.139229 
	C913.987366,69.271645 930.006165,73.701775 945.000000,81.000000 
	C945.000000,182.020889 945.000000,283.041779 944.732605,384.741486 
	C942.661499,387.725006 940.268738,389.084167 937.543457,390.092133 
	C929.612183,393.025787 921.548950,395.687134 913.543152,398.279633 
	C899.099609,402.956848 884.626404,407.717499 870.045959,411.836731 
	C851.353455,417.117615 832.953918,423.285248 814.330078,428.742981 
	C802.382935,432.244080 790.827209,437.149231 778.799744,440.291290 
	C761.745056,444.746674 744.869385,449.715149 728.105774,455.121368 
	C720.949158,457.429352 720.436829,458.189362 720.819946,465.859436 
	C721.027466,470.015747 721.042297,474.184753 721.041504,478.348022 
	C721.021790,586.131409 721.070679,693.914978 720.919250,801.698181 
	C720.854004,848.170044 721.775574,894.645813 720.418884,941.116272 
	C720.226929,947.692261 716.860168,951.768921 711.613586,954.503357 
	C707.815063,956.483032 703.669373,957.994324 699.509766,959.049133 
	C682.179016,963.443665 665.408569,969.624207 648.317566,974.769592 
	C636.242615,978.404785 624.168884,982.010620 612.177979,985.934448 
	C599.563354,990.062439 586.486450,992.811951 573.959229,997.164368 
	C553.863342,1004.146423 533.317566,1009.634216 513.136475,1016.314819 
	C503.219391,1019.597717 493.053375,1022.128723 483.000000,1025.000000 
	C479.307098,1025.000000 475.614166,1025.000000 471.127441,1024.828369 
	C453.915558,1020.489502 437.518951,1016.392700 421.533752,1010.561829 
	C405.415710,1004.682495 388.308929,1001.802063 372.273773,995.495972 
	C358.974365,990.265625 344.669525,988.526917 331.333984,983.136902 
	C317.986664,977.742126 303.862793,974.382385 290.180328,969.769836 
	C274.985931,964.647583 259.291870,961.041931 244.138000,955.656738 
	C233.575912,951.903381 230.925812,948.713684 230.906738,937.614746 
	C230.861496,911.291443 230.820358,884.968079 230.822601,858.644775 
	C230.833817,727.190186 230.841949,595.735596 230.958923,464.281067 
	C230.962723,460.014343 229.937073,457.396820 225.588470,456.144623 
	C218.266708,454.036377 210.983978,451.750793 203.800461,449.212616 
	C187.355545,443.402008 170.304260,439.545837 153.959595,433.370880 
	C145.116135,430.029785 135.528076,428.712128 126.659058,425.613068 
	C110.630630,420.012268 94.318924,415.391937 78.190697,410.161469 
	C65.057014,405.902161 51.511154,402.753418 38.600876,398.070312 
	C25.852209,393.445923 11.702986,391.558899 1.000000,382.000000 
M401.794952,874.083801 
	C406.215637,872.130127 411.055298,871.705627 415.635193,870.159607 
	C428.191406,865.920898 440.957916,862.289062 453.709137,858.655457 
	C456.850861,857.760254 458.849670,856.553284 458.739502,853.017029 
	C458.682587,851.189331 458.891724,849.354980 458.891174,847.523621 
	C458.871887,785.213074 458.841034,722.902466 458.813416,660.591919 
	C458.794678,618.276367 458.755524,575.960876 458.807037,533.645386 
	C458.810852,530.512085 458.416229,527.862793 454.967590,527.054932 
	C450.083496,525.910889 445.569031,523.776184 440.864990,522.159973 
	C423.134033,516.068115 404.815796,511.943573 387.106140,505.654846 
	C372.112549,500.330505 356.498627,496.797058 341.477570,491.383453 
	C326.830780,486.104706 311.362946,483.527405 296.781616,477.874176 
	C287.661591,474.338318 278.137360,471.843994 268.790863,468.893921 
	C264.798615,467.633789 262.826233,468.904388 263.492371,472.993256 
	C264.413757,478.648682 263.982269,484.292633 263.985687,489.912872 
	C264.060089,613.033875 264.037476,736.154907 263.959137,859.275940 
	C263.948029,876.750732 263.557495,894.225403 263.331085,911.699951 
	C263.270996,916.337036 264.910492,917.519470 269.125427,915.756470 
	C270.958679,914.989685 272.677551,913.914124 274.551086,913.284424 
	C289.028778,908.418945 303.973633,905.174316 318.461243,900.248962 
	C337.153687,893.894165 356.157715,888.455505 375.030243,882.630981 
	C383.746429,879.940979 392.468994,877.271606 401.794952,874.083801 
M687.043640,606.500000 
	C687.015137,590.170593 686.954529,573.841125 686.965454,557.511719 
	C686.983398,530.689148 686.949707,503.865906 687.147888,477.044495 
	C687.213745,468.131226 687.510071,468.137238 679.407104,470.707336 
	C678.614624,470.958710 677.799805,471.145660 676.987549,471.327789 
	C663.642273,474.319427 650.948364,479.408356 638.012634,483.678314 
	C627.393127,487.183746 616.529724,489.773010 605.967590,493.716309 
	C595.391724,497.664734 583.916626,499.875763 573.067810,503.477234 
	C549.498230,511.301605 525.333313,517.166504 501.944763,525.584900 
	C492.944763,528.824341 492.769531,528.349121 492.404449,537.999329 
	C492.341461,539.663940 492.291901,541.330872 492.304626,542.996216 
	C492.480408,565.980469 492.822205,588.964600 492.820862,611.948792 
	C492.818054,659.598206 493.113892,707.247314 492.537201,754.897583 
	C492.192627,783.367920 492.359985,811.846130 492.529388,840.319397 
	C492.558807,845.270264 491.510986,850.232178 492.807404,855.237122 
	C493.367950,857.401062 494.163330,858.295837 496.272797,858.654358 
	C510.069855,860.999390 523.463745,865.232300 536.519836,869.870361 
	C556.584045,876.997925 577.159912,882.355713 597.361511,888.969421 
	C618.952820,896.038086 640.752625,902.571045 662.471863,909.300537 
	C669.413025,911.451172 676.600891,912.857056 683.201172,916.228149 
	C686.461060,917.893188 687.539246,915.480286 687.488892,912.380005 
	C687.326416,902.392151 687.171631,892.402710 687.165283,882.413818 
	C687.107056,790.775879 687.080811,699.137939 687.043640,606.500000 
M458.760162,155.499985 
	C458.805023,144.006577 458.771484,132.512070 458.932251,121.020287 
	C458.999268,116.229279 458.150543,115.690376 453.475677,117.246315 
	C440.083221,121.703758 426.643036,126.020874 413.183533,130.272644 
	C405.582520,132.673752 397.959198,135.038361 390.251160,137.057770 
	C380.500000,139.612442 371.294891,144.003998 361.562805,146.286301 
	C343.411377,150.543106 326.270782,157.926315 308.248566,162.485779 
	C294.756500,165.899155 281.895660,171.461838 268.261871,174.383377 
	C265.227295,175.033630 264.090729,176.649506 264.106995,179.578217 
	C264.139343,185.406906 264.041229,191.236176 264.037781,197.065231 
	C264.000305,260.192810 263.983124,323.320374 263.925568,386.447968 
	C263.917084,395.770752 263.990143,405.106201 263.537628,414.412079 
	C263.185913,421.644104 264.580444,423.125427 271.269287,420.497192 
	C283.127167,415.837982 295.569153,413.055450 307.590881,408.818024 
	C323.818848,403.098022 340.884491,399.712280 357.037292,393.621948 
	C369.865540,388.785126 383.141815,385.373901 396.116852,381.049957 
	C414.627136,374.881287 433.696899,370.260620 452.370758,364.389832 
	C457.824799,362.675232 459.187164,360.216858 459.166901,354.917847 
	C458.914307,288.779022 458.865723,222.639389 458.760162,155.499985 
M687.040161,373.500000 
	C687.010803,337.673523 686.975586,301.847076 686.954041,266.020599 
	C686.937012,237.694031 686.888611,209.367310 686.986572,181.041107 
	C686.999756,177.228516 685.743408,175.085098 681.886841,174.457184 
	C676.607483,173.597610 671.749939,171.202011 666.855103,169.320465 
	C650.636780,163.086227 633.559143,159.820221 617.233093,153.713730 
	C600.498230,147.454315 582.624878,144.161926 565.617981,138.188538 
	C551.522949,133.237915 536.960266,129.681580 522.841919,124.718613 
	C514.689270,121.852753 506.116272,120.307022 498.047394,117.085236 
	C493.826721,115.399956 492.296112,116.598991 492.407227,121.366737 
	C492.585205,128.999405 493.200867,136.627701 493.199615,144.257782 
	C493.190094,203.579041 493.068359,262.900299 493.003601,322.221558 
	C492.991241,333.550873 493.582458,344.911896 492.878143,356.194763 
	C492.580994,360.955383 493.628571,362.596039 497.944885,363.844421 
	C513.588867,368.368866 529.306396,372.835266 544.677246,378.060852 
	C565.403992,385.107239 586.375244,391.359314 607.261353,397.790375 
	C631.707031,405.317444 656.274109,412.452362 680.523071,420.619568 
	C685.845459,422.412201 687.439697,421.189850 687.379822,415.474152 
	C687.236633,401.816437 687.151367,388.158081 687.040161,373.500000 
M121.417374,324.740112 
	C125.806625,321.995148 131.066711,322.601166 135.763016,321.002777 
	C147.604752,316.972504 159.339661,312.551147 171.359421,309.139221 
	C189.664825,303.942993 207.836594,298.390076 225.781769,292.067444 
	C229.422653,290.784637 230.940201,288.729736 230.925400,284.708435 
	C230.803360,251.564713 230.881607,218.420303 230.881622,185.276093 
	C230.881622,183.447021 230.713547,181.618408 230.645981,179.788773 
	C230.547012,177.109070 229.306732,175.272018 226.583130,174.918091 
	C221.553452,174.264465 217.103546,171.878052 212.392075,170.302887 
	C199.765030,166.081345 186.872955,162.786316 174.139618,158.959076 
	C151.280716,152.088425 128.731506,144.183029 105.851006,137.389954 
	C84.040665,130.914581 62.430355,123.839256 40.750977,116.967445 
	C36.596031,115.650436 34.871704,116.760773 34.490742,121.212776 
	C34.363342,122.701607 34.407825,124.210098 34.448120,125.707603 
	C35.501080,164.838242 34.914558,203.977081 34.957588,243.111618 
	C34.994579,276.752472 34.620937,310.393707 34.445427,344.034882 
	C34.430889,346.821136 34.083359,349.739258 36.511086,351.772522 
	C42.052113,348.200623 48.434101,347.527344 54.489803,345.994324 
	C68.378777,342.478363 81.304031,335.870697 95.422775,333.204651 
	C104.224770,331.542603 112.177544,327.361786 121.417374,324.740112 
M916.762512,194.500061 
	C916.760315,170.177536 916.729431,145.854950 916.786682,121.532547 
	C916.795349,117.857918 915.776733,115.086960 911.660217,116.815544 
	C901.651428,121.018394 890.966370,123.040710 880.850769,126.835930 
	C865.059631,132.760498 848.433167,135.978745 832.646973,142.009613 
	C823.720947,145.419617 814.261169,147.422363 805.066772,150.143341 
	C799.688660,151.734940 794.429810,154.013123 789.140686,155.474213 
	C779.580688,158.115097 770.309082,161.722397 760.666687,163.966110 
	C748.408997,166.818405 737.028992,172.479156 724.642761,174.860870 
	C721.157349,175.531082 721.115906,178.354340 721.103760,181.110855 
	C720.949463,216.082626 721.612610,251.060059 720.400818,286.024170 
	C720.287476,289.295959 721.529968,291.007385 724.807007,292.200958 
	C747.017212,300.290497 770.043396,305.719391 792.439941,313.207123 
	C807.864868,318.364105 823.542969,322.762451 839.101013,327.522491 
	C859.114807,333.645813 878.884033,340.543152 899.041138,346.228455 
	C904.696655,347.823578 910.618530,348.969391 916.762146,352.709076 
	C916.762146,299.982330 916.762146,247.741196 916.762512,194.500061 
M861.423950,97.623474 
	C864.491821,96.893288 867.576721,96.226151 870.619324,95.402756 
	C871.885132,95.060226 873.284180,94.533508 873.392517,92.907852 
	C873.516602,91.047012 872.074585,90.045677 870.651855,89.826210 
	C865.490112,89.030022 860.901855,86.622116 856.052124,84.967102 
	C841.910400,80.141174 827.391235,76.601570 813.317810,71.429398 
	C793.696655,64.218330 773.591614,58.324482 753.697388,51.855545 
	C743.119324,48.415905 732.132263,46.298405 721.969360,41.497612 
	C710.465698,36.063469 699.013855,36.952461 687.236206,41.510929 
	C677.350708,45.337036 667.501831,49.528900 657.086670,51.805073 
	C643.961426,54.673515 631.794556,60.357910 619.037598,64.292221 
	C608.933655,67.408340 598.938293,70.972412 588.860352,74.039482 
	C571.890686,79.203911 555.167542,85.186943 538.021667,89.779076 
	C536.236023,90.257317 534.605042,91.147064 534.456482,93.488068 
	C536.351685,95.595543 538.919006,96.482201 541.566101,96.475998 
	C544.695740,96.468666 547.420471,97.641014 550.238098,98.581078 
	C555.403198,100.304352 560.432495,102.509407 565.682373,103.889900 
	C581.269897,107.988739 596.748413,112.356216 611.802856,118.196899 
	C626.690308,123.972794 642.700867,125.725685 657.649719,132.022369 
	C669.198914,136.887085 681.813232,140.297043 694.548767,142.049866 
	C695.715820,142.210495 696.894531,142.465729 697.521301,143.620911 
	C698.679199,145.754990 700.781921,145.493073 702.720947,145.905365 
	C708.009460,147.029816 711.731873,142.865616 716.363281,142.078018 
	C723.945251,140.788635 731.078430,137.988922 738.476135,136.095383 
	C753.533691,132.241196 767.815430,125.856041 783.004089,122.310829 
	C788.460266,121.037308 794.144226,119.870766 799.193542,117.680115 
	C804.992676,115.164162 810.946533,113.314857 816.915039,111.560417 
	C831.579346,107.249802 846.267029,103.038635 861.423950,97.623474 
M172.934021,123.561897 
	C179.751160,123.991447 185.803543,127.458694 192.406433,128.947403 
	C197.219101,130.032501 202.528610,132.377655 207.621017,134.083862 
	C219.105759,137.931793 230.680527,141.513321 242.241379,145.130585 
	C245.751770,146.228928 249.449417,147.286255 252.882111,145.190872 
	C257.388184,142.440262 262.449829,141.410629 267.409973,140.217468 
	C283.042358,136.457062 297.910950,130.358200 313.220886,125.626045 
	C318.299561,124.056282 323.493286,122.862434 328.614929,121.427155 
	C341.402039,117.843697 353.409393,111.861176 366.565552,109.340683 
	C372.586639,108.187141 378.606720,106.619408 384.342316,104.476822 
	C393.768951,100.955414 403.218231,97.648743 413.096741,95.631340 
	C414.635284,95.317154 416.420197,94.889122 416.860291,92.216118 
	C411.894836,88.206802 405.145630,87.730003 399.408691,85.443344 
	C384.943207,79.677605 369.461731,76.748940 354.833160,71.103661 
	C338.773132,64.905991 322.154266,60.208225 305.752045,55.028439 
	C287.413300,49.237083 269.348267,42.585842 250.842926,37.317623 
	C248.839874,36.747383 247.053589,36.837982 245.020309,37.298214 
	C232.087860,40.225471 219.923111,45.541771 207.233566,49.250191 
	C191.533356,53.838455 176.081772,59.276676 160.518356,64.334068 
	C141.070480,70.653732 121.688622,77.191345 102.127937,83.140633 
	C95.626282,85.118080 89.814423,89.148857 82.691643,89.369904 
	C80.344650,89.442734 77.787201,90.411278 76.657166,93.035629 
	C77.205109,94.364609 78.394417,94.713341 79.486496,94.942749 
	C90.536392,97.263962 101.021843,101.422539 111.781464,104.665001 
	C131.955963,110.744705 152.181961,116.640327 172.934021,123.561897 
M368.188995,465.301117 
	C382.692871,469.587097 397.457214,473.158844 411.638184,478.330200 
	C431.761017,485.668396 452.805878,490.007507 472.721741,497.901917 
	C474.964233,498.790802 477.238037,498.554291 479.600586,498.266754 
	C483.029663,497.849426 485.714600,495.830109 488.768158,494.624207 
	C506.090240,487.783508 524.371765,484.010498 542.020142,478.074463 
	C559.410889,472.224976 576.965759,466.413391 594.777771,461.741852 
	C610.372498,457.651886 625.164001,450.878693 641.140564,448.122528 
	C642.579346,447.874329 644.348022,447.657410 644.480286,445.710754 
	C644.647034,443.257843 642.459412,443.494781 640.979553,443.024231 
	C619.762573,436.277130 598.525940,429.591034 577.325134,422.793518 
	C559.444153,417.060455 541.278137,412.285828 523.475037,406.260223 
	C509.221893,401.436066 494.596130,397.731384 480.421478,392.598267 
	C477.611908,391.580841 474.270416,391.362396 471.642426,392.990021 
	C466.635406,396.091125 460.727509,397.024292 455.426270,398.468140 
	C437.451965,403.363525 419.832550,409.353699 401.993896,414.635345 
	C385.831451,419.420776 369.995514,425.348450 353.748352,429.796204 
	C339.483063,433.701447 325.756836,439.355286 311.258484,442.440308 
	C309.615234,442.789948 307.268372,443.070526 307.404846,445.578705 
	C307.553406,448.309021 309.982361,448.291504 311.892090,448.561768 
	C314.838104,448.978821 318.054749,448.076752 320.735382,449.653107 
	C327.845520,453.834198 335.829803,455.412170 343.568939,457.743469 
	C351.534302,460.142914 359.487061,462.584076 368.188995,465.301117 
M218.575302,418.725189 
	C219.498199,419.108398 220.425919,419.480377 221.343231,419.876526 
	C229.477722,423.389862 230.870926,422.446991 230.861084,413.618408 
	C230.832855,388.289520 230.823730,362.960571 230.843414,337.631653 
	C230.852112,326.440033 230.159515,326.166107 219.191971,329.561035 
	C207.165604,333.283783 195.221146,337.221863 183.286346,341.220520 
	C174.464890,344.176056 165.330246,346.183563 156.440063,348.950592 
	C146.309464,352.103668 136.478470,356.417938 126.188019,358.812744 
	C110.423355,362.481506 95.420959,368.474457 79.871246,372.728821 
	C78.580704,373.081940 76.796700,373.223022 76.544258,375.698090 
	C84.856049,377.277130 92.756271,380.262085 100.781960,382.841248 
	C117.317543,388.155212 134.266464,392.074402 150.520294,398.400757 
	C159.148254,401.759033 168.398895,403.527313 177.383911,405.956116 
	C191.014801,409.640747 204.005753,415.387878 218.575302,418.725189 
M773.271301,342.239227 
	C770.533447,341.526917 767.679016,341.103516 765.077515,340.053436 
	C752.255554,334.878113 738.982239,331.170685 725.653809,327.626617 
	C722.437378,326.771332 720.679749,327.418823 720.760620,331.421265 
	C721.329834,359.577087 721.364258,387.733795 720.373047,415.885193 
	C720.174072,421.537750 721.472778,422.548248 726.760681,421.019958 
	C732.827209,419.266632 738.960327,417.670410 744.885010,415.512939 
	C765.172668,408.125214 786.137939,402.913086 806.504211,395.638672 
	C823.801147,389.460602 841.940674,385.378632 859.529114,379.754791 
	C864.602478,378.132629 869.702637,376.594360 874.985352,374.957275 
	C873.539062,372.582275 871.772217,372.683594 870.207397,372.242493 
	C864.765625,370.708649 859.179626,369.504639 853.959717,367.402344 
	C841.889709,362.541138 829.352783,359.090332 816.874268,355.737701 
	C802.403687,351.849854 788.576355,346.049316 773.271301,342.239227 
M566.529541,964.806824 
	C580.794678,963.275208 593.180054,955.814331 606.752075,952.036560 
	C620.130066,948.312866 633.812317,945.356934 647.643799,939.254578 
	C642.754883,936.615967 638.682983,936.386353 634.908752,935.218262 
	C603.158142,925.392029 571.355896,915.732605 539.615906,905.872314 
	C525.845947,901.594543 512.176758,896.990784 498.480194,892.478943 
	C493.395020,890.803833 492.220795,891.755920 493.035522,897.134888 
	C493.135040,897.791870 493.247620,898.458130 493.238556,899.118591 
	C492.901184,923.750122 493.713989,948.392944 492.483154,973.016907 
	C492.261505,977.450867 491.664032,981.925171 492.891876,987.101868 
	C517.559021,980.423950 541.885620,973.520447 566.529541,964.806824 
M458.826080,968.498779 
	C458.848145,944.678406 458.868713,920.858093 458.893494,897.037720 
	C458.898529,892.226318 457.974426,891.480286 453.230225,892.998047 
	C445.795868,895.376404 438.462341,898.079102 430.994019,900.340454 
	C414.068604,905.465210 397.043518,910.262695 380.139343,915.455017 
	C359.195648,921.888062 338.321014,928.547424 317.446228,935.202026 
	C313.268188,936.533997 308.725983,936.753052 304.624817,939.056641 
	C309.757660,942.243530 315.154022,943.613220 320.587097,945.169312 
	C335.759705,949.514893 350.756989,954.468384 365.875732,959.007751 
	C376.862549,962.306458 388.204773,964.605225 398.904541,968.634949 
	C416.979126,975.442078 435.995056,979.252747 453.866608,986.587708 
	C457.535767,988.093567 458.798828,986.390015 458.820374,982.988831 
	C458.848877,978.491943 458.828735,973.994751 458.826080,968.498779 
z"/>
</svg>